<svg xmlns="http://www.w3.org/2000/svg" width="1800" height="2760" viewBox="0 0 1800 2760" role="img" aria-labelledby="title desc">
  <title id="title">云盘 STRM 小管家任务中心优化设计方向</title>
  <desc id="desc">包含运行仪表盘、全量生成设置、任务中心筛选和任务详情动作日志的高保真 SVG 设计稿。</desc>
  <defs>
    <filter id="board-shadow" x="-10%" y="-10%" width="120%" height="130%"><feDropShadow dx="0" dy="14" stdDeviation="24" flood-color="#24314a" flood-opacity="0.12"/></filter>
    <filter id="panel-shadow" x="-10%" y="-10%" width="120%" height="130%"><feDropShadow dx="0" dy="5" stdDeviation="10" flood-color="#24314a" flood-opacity="0.08"/></filter>
    <style>
      .ui { font-family: "Microsoft YaHei UI", "Microsoft YaHei", sans-serif; }
      .title { font-size: 29px; font-weight: 700; letter-spacing: 0; }
      .page-title { font-size: 25px; font-weight: 700; letter-spacing: 0; }
      .section { font-size: 17px; font-weight: 700; letter-spacing: 0; }
      .body { font-size: 14px; font-weight: 400; letter-spacing: 0; }
      .small { font-size: 12px; font-weight: 400; letter-spacing: 0; }
      .label { font-size: 12px; font-weight: 700; letter-spacing: 0; }
      .metric { font-size: 27px; font-weight: 700; letter-spacing: 0; }
      .big-number { font-size: 31px; font-weight: 700; letter-spacing: 0; }
      .muted { fill: #66758c; }
      .faint { fill: #8d99aa; }
      .line { stroke: #dbe3eb; }
      .dark-line { stroke: #32435a; }
    </style>
  </defs>

  <rect width="1800" height="2760" fill="#e7edf3"/>
  <text class="ui title" x="70" y="70" fill="#24314a">云盘 STRM 小管家 · 任务中心优化设计方向</text>
  <text class="ui body muted" x="70" y="101">先评审信息架构和操作路径，确认后再进入一次性整体改造。</text>
  <rect x="1392" y="48" width="155" height="30" rx="15" fill="#ffffff" stroke="#cbd6df"/>
  <text class="ui label" x="1470" y="68" text-anchor="middle" fill="#2d6073">信息架构评审稿</text>
  <rect x="1560" y="48" width="170" height="30" rx="15" fill="#fff7ed" stroke="#f0cfad"/>
  <text class="ui label" x="1645" y="68" text-anchor="middle" fill="#b9633e">v2.2 · 未实施</text>

  <g class="ui">
    <text class="small" x="70" y="132" fill="#8d99aa" font-weight="700">状态语义</text>
    <circle cx="154" cy="128" r="5" fill="#48a476"/><text class="small" x="166" y="132" fill="#66758c">已处理</text>
    <circle cx="246" cy="128" r="5" fill="#2d6073"/><text class="small" x="258" y="132" fill="#66758c">进行中</text>
    <circle cx="344" cy="128" r="5" fill="#d79a3f"/><text class="small" x="356" y="132" fill="#66758c">等待 / 待确认</text>
    <circle cx="484" cy="128" r="5" fill="#b9633e"/><text class="small" x="496" y="132" fill="#66758c">失败</text>
    <circle cx="558" cy="128" r="5" fill="#8d99aa"/><text class="small" x="570" y="132" fill="#66758c">跳过</text>
  </g>

  <!-- Screen 01: dashboard -->
  <g filter="url(#board-shadow)"><rect x="70" y="160" width="1660" height="790" rx="14" fill="#fbfcfe"/></g>
  <g class="ui">
    <rect x="70" y="160" width="250" height="790" rx="14" fill="#15243a"/><rect x="304" y="160" width="16" height="790" fill="#15243a"/>
    <rect x="96" y="194" width="34" height="34" rx="8" fill="#d87348"/><path d="M106 212h14M113 205v14" stroke="#fff" stroke-width="2.2" stroke-linecap="round"/>
    <text x="143" y="209" fill="#fff" font-size="16" font-weight="700">云盘 Strm</text><text x="143" y="227" fill="#aebbd0" font-size="12">小管家 · v2.2 设计稿</text>
    <text class="small" x="96" y="284" fill="#8d9bb3" font-weight="700">同步管理</text>
    <rect x="86" y="298" width="218" height="44" rx="7" fill="#27435b"/><rect x="86" y="298" width="4" height="44" rx="2" fill="#e79851"/>
    <path d="M109 317h14M116 310v14" stroke="#fff" stroke-width="1.8" stroke-linecap="round"/><text class="body" x="140" y="325" fill="#fff" font-weight="700">同步工作台</text>
    <path d="M109 369h14v12h-14zM112 366h8" fill="none" stroke="#b9c6d7" stroke-width="1.6" stroke-linejoin="round"/><text class="body" x="140" y="378" fill="#c9d3e1">路径规则</text>
    <path d="M116 418a7 7 0 1 0 0 14 7 7 0 0 0 0-14zm0-5v4m0 18v4m-12-14h4m16 0h4" fill="none" stroke="#b9c6d7" stroke-width="1.5" stroke-linecap="round"/><text class="body" x="140" y="432" fill="#c9d3e1">运行设置</text>
    <line x1="96" y1="480" x2="294" y2="480" class="dark-line"/><text class="small" x="96" y="516" fill="#8d9bb3" font-weight="700">运行状态</text>
    <circle cx="108" cy="548" r="5" fill="#65bd93"/><text class="body" x="123" y="553" fill="#d6dfeb">目录监控已启用</text><text class="small" x="123" y="574" fill="#8d9bb3">队列空闲 · 最近刷新刚刚</text>
    <rect x="96" y="850" width="198" height="72" rx="8" fill="#1d314a"/><circle cx="118" cy="876" r="9" fill="#417a66"/><path d="M113 876l4 4 7-8" fill="none" stroke="#fff" stroke-width="1.5" stroke-linecap="round" stroke-linejoin="round"/><text class="small" x="138" y="878" fill="#e7edf6" font-weight="700">系统健康</text><text class="small" x="113" y="905" fill="#9db0c7">无待恢复任务</text>

    <rect x="320" y="160" width="1410" height="790" fill="#fbfcfe"/><text class="page-title" x="368" y="217" fill="#24314a">同步工作台</text><text class="body muted" x="368" y="244">当前库存、实时队列和最近任务集中在这里。</text>
    <rect x="1436" y="190" width="120" height="40" rx="6" fill="#ffffff" stroke="#bdc9d5"/><path d="M1458 203a10 10 0 1 0 9 14M1467 203v7h-7" fill="none" stroke="#51677d" stroke-width="1.7" stroke-linecap="round" stroke-linejoin="round"/><text class="label" x="1480" y="215" fill="#38546b">刷新状态</text>
    <rect x="1568" y="190" width="126" height="40" rx="6" fill="#2d6073"/><path d="M1589 210h14m-7-7v14" stroke="#fff" stroke-width="1.7" stroke-linecap="round"/><text class="label" x="1615" y="215" fill="#fff">全量生成</text><line x1="368" y1="270" x2="1694" y2="270" class="line"/>

    <rect x="368" y="292" width="1326" height="72" rx="8" fill="#fff" stroke="#cfe2d8"/><rect x="368" y="292" width="7" height="72" rx="3" fill="#48a476"/><circle cx="412" cy="328" r="23" fill="#e6f5ed"/><path d="M401 329l7 7 15-17" fill="none" stroke="#34825e" stroke-width="3" stroke-linecap="round" stroke-linejoin="round"/><text class="section" x="450" y="321" fill="#24314a">目录监控运行正常</text><text class="small muted" x="450" y="345">3 个规则正在监控 · 0 个等待任务 · 0 个未解决失败</text><rect x="1572" y="312" width="91" height="28" rx="14" fill="#e7f5ec"/><circle cx="1589" cy="326" r="4" fill="#48a476"/><text class="small" x="1600" y="330" fill="#2d7052" font-weight="700">监控中</text>

    <text class="section" x="368" y="402" fill="#24314a">当前库存</text><text class="small muted" x="458" y="402">源目录与目标目录真实核对 · 最后核对 今天 14:32:18</text>
    <rect x="368" y="420" width="315" height="94" rx="8" fill="#fff" stroke="#dbe3eb"/><text class="small muted" x="390" y="449">媒体总数</text><text class="metric" x="390" y="489" fill="#24314a">12,480</text><text class="small" x="498" y="486" fill="#66758c">个源文件</text>
    <rect x="696" y="420" width="315" height="94" rx="8" fill="#fff" stroke="#cfe0e5"/><text class="small muted" x="718" y="449">已生成 STRM</text><text class="metric" x="718" y="489" fill="#2d6073">12,462</text><text class="small" x="836" y="486" fill="#b9633e">少 18 个</text>
    <rect x="1024" y="420" width="315" height="94" rx="8" fill="#fff" stroke="#dbe3eb"/><text class="small muted" x="1046" y="449">非媒体文件</text><text class="metric" x="1046" y="489" fill="#24314a">3,614</text><text class="small" x="1151" y="486" fill="#48a476">已完成 3,580</text>
    <rect x="1352" y="420" width="342" height="94" rx="8" fill="#fff" stroke="#dbe3eb"/><text class="small muted" x="1374" y="449">字幕文件</text><text class="metric" x="1374" y="489" fill="#24314a">3,012</text><text class="small" x="1479" y="486" fill="#d79a3f">已完成 2,980</text>

    <rect x="368" y="548" width="600" height="330" rx="8" fill="#fff" stroke="#dbe3eb"/><text class="section" x="392" y="586" fill="#24314a">任务队列</text><text class="small muted" x="486" y="586">三种入口共享同一套状态</text><line x1="392" y1="605" x2="944" y2="605" class="line"/>
    <text class="small muted" x="392" y="639">等待中</text><text class="big-number" x="392" y="677" fill="#d79a3f">24</text><text class="small muted" x="500" y="639">进行中</text><text class="big-number" x="500" y="677" fill="#2d6073">3</text><text class="small muted" x="608" y="639">重试中</text><text class="big-number" x="608" y="677" fill="#d79a3f">6</text><text class="small muted" x="716" y="639">失败</text><text class="big-number" x="716" y="677" fill="#b9633e">2</text><text class="small muted" x="824" y="639">已跳过</text><text class="big-number" x="824" y="677" fill="#8d99aa">8,902</text>
    <rect x="392" y="712" width="552" height="44" rx="6" fill="#f4f8fb"/><text class="small" x="412" y="739" fill="#66758c">当前最高优先级</text><text class="small" x="540" y="739" fill="#2d6073" font-weight="700">监控新增 · /CloudDrive/电影/第 08 集.mkv</text><rect x="392" y="778" width="166" height="40" rx="6" fill="#e6f0f3"/><text class="label" x="475" y="803" text-anchor="middle" fill="#2d6073">查看任务中心</text><text class="small muted" x="578" y="803">监控优先 · 定向其次 · 全量最低</text>

    <rect x="990" y="548" width="704" height="330" rx="8" fill="#fff" stroke="#dbe3eb"/><text class="section" x="1014" y="586" fill="#24314a">近期任务</text><text class="small muted" x="1100" y="586">运行摘要 · 可下钻到动作日志</text><text class="label" x="1616" y="586" fill="#2d6073">查看全部</text><line x1="1014" y1="605" x2="1670" y2="605" class="line"/>
    <text class="small faint" x="1014" y="632" font-weight="700">入口 / 时间</text><text class="small faint" x="1202" y="632" font-weight="700">状态</text><text class="small faint" x="1304" y="632" font-weight="700">处理结果</text><text class="small faint" x="1590" y="632" font-weight="700">耗时</text><line x1="1014" y1="647" x2="1670" y2="647" stroke="#eef2f5"/>
    <text class="small" x="1014" y="674" fill="#24314a">全量生成 · 14:30</text><rect x="1202" y="657" width="61" height="24" rx="12" fill="#e7f5ec"/><text class="small" x="1232" y="673" text-anchor="middle" fill="#2d7052" font-weight="700">已处理</text><text class="small" x="1304" y="674" fill="#66758c">STRM 126 · 跳过 1,203</text><text class="small" x="1590" y="674" fill="#66758c">01:42</text><line x1="1014" y1="693" x2="1670" y2="693" stroke="#eef2f5"/>
    <text class="small" x="1014" y="720" fill="#24314a">目录监控 · 14:18</text><rect x="1202" y="703" width="61" height="24" rx="12" fill="#fff0e5"/><text class="small" x="1232" y="719" text-anchor="middle" fill="#b9633e" font-weight="700">失败</text><text class="small" x="1304" y="720" fill="#b9633e">字幕 1 · 重试 3</text><text class="small" x="1590" y="720" fill="#66758c">00:08</text><line x1="1014" y1="739" x2="1670" y2="739" stroke="#eef2f5"/>
    <text class="small" x="1014" y="766" fill="#24314a">定向生成 · 11:04</text><rect x="1202" y="749" width="61" height="24" rx="12" fill="#e7f5ec"/><text class="small" x="1232" y="765" text-anchor="middle" fill="#2d7052" font-weight="700">已处理</text><text class="small" x="1304" y="766" fill="#66758c">STRM 48 · 字幕 12</text><text class="small" x="1590" y="766" fill="#66758c">00:36</text><line x1="1014" y1="785" x2="1670" y2="785" stroke="#eef2f5"/>
    <text class="small muted" x="1014" y="824">当前库存与任务结果分开统计，避免一次全量任务改变库存口径。</text>

    <!-- Full scan setup drawer -->
    <rect x="1116" y="160" width="614" height="790" fill="#15243a" opacity="0.16"/><rect x="1128" y="182" width="570" height="744" rx="10" fill="#fff" filter="url(#panel-shadow)"/>
    <text class="page-title" x="1160" y="230" fill="#24314a">执行全量生成</text><text class="body muted" x="1160" y="256">本次选择只作用于当前任务，不改变全局配置。</text><rect x="1644" y="207" width="32" height="32" rx="6" fill="#f3f6f8"/><path d="M1654 217l12 12m0-12-12 12" stroke="#52657b" stroke-width="1.6" stroke-linecap="round"/><line x1="1128" y1="280" x2="1698" y2="280" class="line"/>
    <text class="section" x="1160" y="322" fill="#24314a">扫描范围</text><rect x="1160" y="342" width="506" height="44" rx="6" fill="#fff" stroke="#bdc9d5"/><text class="body" x="1180" y="370" fill="#24314a">全部有效规则</text><path d="M1637 359l8 8 8-8" fill="none" stroke="#66758c" stroke-width="1.6" stroke-linecap="round" stroke-linejoin="round"/>
    <text class="section" x="1160" y="438" fill="#24314a">本次处理内容</text>
    <rect x="1160" y="458" width="506" height="58" rx="7" fill="#f4f8fb"/><rect x="1180" y="477" width="20" height="20" rx="4" fill="#2d6073"/><path d="M1185 487l4 4 7-8" fill="none" stroke="#fff" stroke-width="1.5" stroke-linecap="round" stroke-linejoin="round"/><text class="body" x="1216" y="493" fill="#24314a" font-weight="700">生成 STRM</text><text class="small muted" x="1455" y="493">必选 · 12,480 个媒体</text>
    <rect x="1160" y="528" width="506" height="58" rx="7" fill="#fff" stroke="#dbe3eb"/><rect x="1180" y="547" width="20" height="20" rx="4" fill="#2d6073"/><path d="M1185 557l4 4 7-8" fill="none" stroke="#fff" stroke-width="1.5" stroke-linecap="round" stroke-linejoin="round"/><text class="body" x="1216" y="563" fill="#24314a" font-weight="700">复制字幕</text><text class="small muted" x="1486" y="563">3,012 个</text>
    <rect x="1160" y="598" width="506" height="58" rx="7" fill="#fff" stroke="#dbe3eb"/><rect x="1180" y="617" width="20" height="20" rx="4" fill="#2d6073"/><path d="M1185 627l4 4 7-8" fill="none" stroke="#fff" stroke-width="1.5" stroke-linecap="round" stroke-linejoin="round"/><text class="body" x="1216" y="633" fill="#24314a" font-weight="700">复制非媒体文件</text><text class="small muted" x="1486" y="633">3,614 个</text>
    <rect x="1160" y="684" width="506" height="82" rx="7" fill="#fff7ed" stroke="#f0cfad"/><path d="M1189 707l12 22h-24z" fill="#d87348"/><path d="M1189 713v8m0 5v1" stroke="#fff" stroke-width="1.5" stroke-linecap="round"/><text class="small" x="1220" y="711" fill="#935237" font-weight="700">覆盖已有文件：沿用全局配置</text><text class="small" x="1220" y="735" fill="#9c6b56">任务启动后会固定使用本次配置快照。</text>
    <line x1="1128" y1="810" x2="1698" y2="810" class="line"/><text class="small muted" x="1160" y="842">预计纳入 19,106 个文件任务 · 监控事件仍优先处理</text><rect x="1436" y="858" width="92" height="40" rx="6" fill="#fff" stroke="#bdc9d5"/><text class="label" x="1464" y="883" fill="#4c6076">取消</text><rect x="1538" y="858" width="128" height="40" rx="6" fill="#2d6073"/><text class="label" x="1561" y="883" fill="#fff">开始生成</text>
  </g>
  <text class="ui label" x="70" y="984" fill="#2d6073">01 · 运行仪表盘 + 全量生成设置</text><text class="ui small muted" x="70" y="1007">第一屏回答：当前库存是否完整、队列是否积压、最近一次任务发生了什么；全量按钮只提供本次选项。</text>

  <!-- Screen 02: task center -->
  <g filter="url(#board-shadow)"><rect x="70" y="1040" width="1660" height="810" rx="14" fill="#fbfcfe"/></g>
  <g class="ui">
    <rect x="70" y="1040" width="250" height="810" rx="14" fill="#15243a"/><rect x="304" y="1040" width="16" height="810" fill="#15243a"/><rect x="96" y="1074" width="34" height="34" rx="8" fill="#d87348"/><path d="M106 1092h14M113 1085v14" stroke="#fff" stroke-width="2.2" stroke-linecap="round"/><text x="143" y="1089" fill="#fff" font-size="16" font-weight="700">云盘 Strm</text><text x="143" y="1107" fill="#aebbd0" font-size="12">小管家</text>
    <text class="small" x="96" y="1164" fill="#8d9bb3" font-weight="700">同步管理</text><rect x="86" y="1178" width="218" height="44" rx="7" fill="#27435b"/><rect x="86" y="1178" width="4" height="44" rx="2" fill="#e79851"/><path d="M109 1196h14M116 1189v14" stroke="#fff" stroke-width="1.8" stroke-linecap="round"/><text class="body" x="140" y="1205" fill="#fff" font-weight="700">任务中心</text><text class="body" x="140" y="1260" fill="#c9d3e1">同步工作台</text><text class="body" x="140" y="1314" fill="#c9d3e1">路径规则</text><text class="body" x="140" y="1368" fill="#c9d3e1">运行设置</text><line x1="96" y1="1416" x2="294" y2="1416" class="dark-line"/><text class="small" x="96" y="1452" fill="#8d9bb3" font-weight="700">当前状态</text><circle cx="108" cy="1484" r="5" fill="#65bd93"/><text class="body" x="123" y="1489" fill="#d6dfeb">服务正常</text><text class="small" x="123" y="1510" fill="#8d9bb3">任务历史保留 90 天</text><rect x="96" y="1750" width="198" height="72" rx="8" fill="#1d314a"/><text class="small" x="113" y="1780" fill="#e7edf6" font-weight="700">任务日志</text><text class="small" x="113" y="1805" fill="#9db0c7">动作明细保留 30 天</text>
    <rect x="320" y="1040" width="1410" height="810" fill="#fbfcfe"/><text class="page-title" x="368" y="1098" fill="#24314a">任务中心</text><text class="body muted" x="368" y="1125">按入口、动作、状态和路径定位每一次同步结果。</text><rect x="1540" y="1070" width="154" height="40" rx="6" fill="#ffffff" stroke="#bdc9d5"/><path d="M1562 1083a10 10 0 1 0 9 14M1571 1083v7h-7" fill="none" stroke="#51677d" stroke-width="1.7" stroke-linecap="round" stroke-linejoin="round"/><text class="label" x="1584" y="1095" fill="#38546b">刷新任务中心</text><line x1="368" y1="1152" x2="1694" y2="1152" class="line"/>
    <rect x="368" y="1176" width="1326" height="64" rx="8" fill="#fff" stroke="#dbe3eb"/><rect x="388" y="1190" width="150" height="36" rx="6" fill="#fff" stroke="#bdc9d5"/><text class="small muted" x="406" y="1213">时间：最近 7 天</text><path d="M514 1203l7 7 7-7" fill="none" stroke="#66758c" stroke-width="1.5" stroke-linecap="round"/><rect x="550" y="1190" width="142" height="36" rx="6" fill="#fff" stroke="#bdc9d5"/><text class="small muted" x="568" y="1213">入口：全部</text><path d="M666 1203l7 7 7-7" fill="none" stroke="#66758c" stroke-width="1.5" stroke-linecap="round"/><rect x="704" y="1190" width="142" height="36" rx="6" fill="#fff" stroke="#bdc9d5"/><text class="small muted" x="722" y="1213">动作：全部</text><path d="M820 1203l7 7 7-7" fill="none" stroke="#66758c" stroke-width="1.5" stroke-linecap="round"/><rect x="858" y="1190" width="142" height="36" rx="6" fill="#fff" stroke="#bdc9d5"/><text class="small muted" x="876" y="1213">状态：全部</text><path d="M974 1203l7 7 7-7" fill="none" stroke="#66758c" stroke-width="1.5" stroke-linecap="round"/><rect x="1012" y="1190" width="300" height="36" rx="6" fill="#fff" stroke="#bdc9d5"/><path d="M1032 1200a7 7 0 1 0 0 14 7 7 0 0 0 0-14zm5 12 6 6" fill="none" stroke="#6f8092" stroke-width="1.4" stroke-linecap="round"/><text class="small faint" x="1053" y="1213">搜索源路径或目标路径</text><rect x="1328" y="1190" width="142" height="36" rx="6" fill="#e6f0f3"/><text class="label" x="1399" y="1213" text-anchor="middle" fill="#2d6073">应用筛选</text><text class="small" x="1492" y="1213" fill="#8d99aa">已筛选 12,486 条</text>
    <text class="section" x="368" y="1286" fill="#24314a">任务状态</text><text class="small muted" x="456" y="1286">默认优先显示等待、重试和失败</text><rect x="368" y="1302" width="200" height="62" rx="7" fill="#fff7ed" stroke="#f0cfad"/><text class="small" x="388" y="1327" fill="#935237">等待中</text><text class="metric" x="388" y="1353" fill="#d79a3f">24</text><rect x="584" y="1302" width="200" height="62" rx="7" fill="#eef6f7" stroke="#cfe0e5"/><text class="small" x="604" y="1327" fill="#2d6073">进行中</text><text class="metric" x="604" y="1353" fill="#2d6073">3</text><rect x="800" y="1302" width="200" height="62" rx="7" fill="#f4f8fb" stroke="#dbe3eb"/><text class="small" x="820" y="1327" fill="#66758c">已处理</text><text class="metric" x="820" y="1353" fill="#24314a">12,408</text><rect x="1016" y="1302" width="200" height="62" rx="7" fill="#f4f8fb" stroke="#dbe3eb"/><text class="small" x="1036" y="1327" fill="#66758c">已跳过</text><text class="metric" x="1036" y="1353" fill="#8d99aa">8,902</text><rect x="1232" y="1302" width="200" height="62" rx="7" fill="#fff7ed" stroke="#f0cfad"/><text class="small" x="1252" y="1327" fill="#935237">重试中</text><text class="metric" x="1252" y="1353" fill="#d79a3f">6</text><rect x="1448" y="1302" width="246" height="62" rx="7" fill="#fff0e5" stroke="#f0cfad"/><text class="small" x="1468" y="1327" fill="#935237">失败</text><text class="metric" x="1468" y="1353" fill="#b9633e">2</text><text class="small" x="1515" y="1351" fill="#b9633e">需要介入</text>
    <rect x="368" y="1396" width="1326" height="382" rx="8" fill="#fff" stroke="#dbe3eb"/><rect x="368" y="1396" width="1326" height="44" rx="8" fill="#f4f8fb"/><text class="label" x="392" y="1423" fill="#66758c">任务 / 入口</text><text class="label" x="650" y="1423" fill="#66758c">状态</text><text class="label" x="792" y="1423" fill="#66758c">进度</text><text class="label" x="1010" y="1423" fill="#66758c">动作结果</text><text class="label" x="1360" y="1423" fill="#66758c">开始 / 耗时</text><text class="label" x="1620" y="1423" fill="#66758c">操作</text><line x1="368" y1="1440" x2="1694" y2="1440" class="line"/>
    <text class="small" x="392" y="1472" fill="#24314a" font-weight="700">全量生成</text><text class="small muted" x="392" y="1493">今天 14:30 · 全部规则</text><rect x="650" y="1458" width="68" height="24" rx="12" fill="#e7f5ec"/><text class="small" x="684" y="1474" text-anchor="middle" fill="#2d7052" font-weight="700">已处理</text><text class="small" x="792" y="1473" fill="#24314a">12,480 / 12,480</text><rect x="792" y="1491" width="182" height="5" rx="2" fill="#48a476"/><text class="small" x="1010" y="1473" fill="#66758c">STRM 126 · 字幕 48 · 跳过 1,203</text><text class="small muted" x="1360" y="1473">14:30 · 01:42</text><text class="label" x="1620" y="1473" fill="#2d6073">详情</text><line x1="392" y1="1518" x2="1670" y2="1518" stroke="#eef2f5"/>
    <text class="small" x="392" y="1550" fill="#24314a" font-weight="700">目录监控</text><text class="small muted" x="392" y="1571">今天 14:18 · 国产剧</text><rect x="650" y="1536" width="58" height="24" rx="12" fill="#fff0e5"/><text class="small" x="679" y="1552" text-anchor="middle" fill="#b9633e" font-weight="700">失败</text><text class="small" x="792" y="1551" fill="#24314a">4 / 5</text><rect x="792" y="1569" width="145" height="5" rx="2" fill="#d87348"/><text class="small" x="1010" y="1551" fill="#b9633e">STRM 4 · 字幕失败 1</text><text class="small muted" x="1360" y="1551">14:18 · 00:08</text><text class="label" x="1620" y="1551" fill="#2d6073">详情</text><line x1="392" y1="1596" x2="1670" y2="1596" stroke="#eef2f5"/>
    <text class="small" x="392" y="1628" fill="#24314a" font-weight="700">定向生成</text><text class="small muted" x="392" y="1649">今天 11:04 · /CloudDrive/电影/黑金营救</text><rect x="650" y="1614" width="68" height="24" rx="12" fill="#e7f5ec"/><text class="small" x="684" y="1630" text-anchor="middle" fill="#2d7052" font-weight="700">已处理</text><text class="small" x="792" y="1629" fill="#24314a">60 / 60</text><rect x="792" y="1647" width="182" height="5" rx="2" fill="#48a476"/><text class="small" x="1010" y="1629" fill="#66758c">STRM 48 · 字幕 12</text><text class="small muted" x="1360" y="1629">11:04 · 00:36</text><text class="label" x="1620" y="1629" fill="#2d6073">详情</text><line x1="392" y1="1674" x2="1670" y2="1674" stroke="#eef2f5"/>
    <text class="small" x="392" y="1706" fill="#24314a" font-weight="700">目录监控</text><text class="small muted" x="392" y="1727">今天 10:52 · 纪录片</text><rect x="650" y="1692" width="76" height="24" rx="12" fill="#fff7ed"/><text class="small" x="688" y="1708" text-anchor="middle" fill="#b27a20" font-weight="700">重试中</text><text class="small" x="792" y="1707" fill="#24314a">18 / 18</text><text class="small" x="1010" y="1707" fill="#d79a3f">复制非媒体 · 下次 14:35</text><text class="small muted" x="1360" y="1707">10:52 · 03:10</text><text class="label" x="1620" y="1707" fill="#2d6073">详情</text><text class="small muted" x="392" y="1753">服务端分页 · 每页 50 条 · 支持路径关键词和动作级下钻</text>
  </g>
  <text class="ui label" x="70" y="1884" fill="#2d6073">02 · 任务中心</text><text class="ui small muted" x="70" y="1907">筛选维度覆盖时间、入口、规则、动作、状态、源路径和目标路径；默认把需要介入的任务放在前面。</text>

  <!-- Screen 03: task detail -->
  <g filter="url(#board-shadow)"><rect x="70" y="1940" width="1660" height="720" rx="14" fill="#fbfcfe"/></g>
  <g class="ui">
    <rect x="70" y="1940" width="250" height="720" rx="14" fill="#15243a"/><rect x="304" y="1940" width="16" height="720" fill="#15243a"/><rect x="96" y="1974" width="34" height="34" rx="8" fill="#d87348"/><path d="M106 1992h14M113 1985v14" stroke="#fff" stroke-width="2.2" stroke-linecap="round"/><text x="143" y="1989" fill="#fff" font-size="16" font-weight="700">云盘 Strm</text><text x="143" y="2007" fill="#aebbd0" font-size="12">小管家</text>
    <text class="small" x="96" y="2064" fill="#8d9bb3" font-weight="700">同步管理</text><rect x="86" y="2078" width="218" height="44" rx="7" fill="#27435b"/><rect x="86" y="2078" width="4" height="44" rx="2" fill="#e79851"/><path d="M109 2096h14M116 2089v14" stroke="#fff" stroke-width="1.8" stroke-linecap="round"/><text class="body" x="140" y="2105" fill="#fff" font-weight="700">任务中心</text><text class="body" x="140" y="2160" fill="#c9d3e1">同步工作台</text><text class="body" x="140" y="2214" fill="#c9d3e1">路径规则</text><text class="body" x="140" y="2268" fill="#c9d3e1">运行设置</text><line x1="96" y1="2315" x2="294" y2="2315" class="dark-line"/><text class="small" x="96" y="2351" fill="#8d9bb3" font-weight="700">恢复策略</text><circle cx="108" cy="2383" r="5" fill="#65bd93"/><text class="body" x="123" y="2388" fill="#d6dfeb">重启后自动恢复</text><text class="small" x="123" y="2409" fill="#8d9bb3">已完成动作不会重复写入</text>
    <rect x="320" y="1940" width="1410" height="720" fill="#fbfcfe"/><text class="small" x="368" y="1980" fill="#8d99aa">任务中心 / 全量生成 / 今天 14:30</text><text class="page-title" x="368" y="2025" fill="#24314a">全量生成 · 2026-08-15 14:30</text><rect x="684" y="1998" width="83" height="28" rx="14" fill="#fff0e5"/><text class="small" x="725" y="2016" text-anchor="middle" fill="#b9633e" font-weight="700">部分完成</text><text class="body muted" x="788" y="2018">配置快照：STRM + 字幕 + 非媒体 · 3 条规则</text><rect x="1504" y="1988" width="82" height="38" rx="6" fill="#fff" stroke="#bdc9d5"/><text class="label" x="1545" y="2012" text-anchor="middle" fill="#4c6076">重试失败</text><rect x="1598" y="1988" width="96" height="38" rx="6" fill="#2d6073"/><text class="label" x="1646" y="2012" text-anchor="middle" fill="#fff">返回任务中心</text><line x1="368" y1="2050" x2="1694" y2="2050" class="line"/>
    <rect x="368" y="2074" width="1326" height="86" rx="8" fill="#fff" stroke="#dbe3eb"/><text class="small muted" x="392" y="2102">文件任务</text><text class="metric" x="392" y="2140" fill="#24314a">12,480</text><text class="small muted" x="574" y="2102">已处理</text><text class="metric" x="574" y="2140" fill="#48a476">12,451</text><text class="small muted" x="756" y="2102">已跳过</text><text class="metric" x="756" y="2140" fill="#8d99aa">27</text><text class="small muted" x="918" y="2102">失败</text><text class="metric" x="918" y="2140" fill="#b9633e">2</text><text class="small muted" x="1080" y="2102">动作结果</text><text class="small" x="1080" y="2136" fill="#2d6073">STRM 126</text><text class="small" x="1182" y="2136" fill="#4c8390">字幕 48</text><text class="small" x="1270" y="2136" fill="#66758c">非媒体 31</text><text class="small muted" x="1460" y="2102">运行耗时</text><text class="body" x="1460" y="2136" fill="#24314a" font-weight="700">01:42</text>

    <rect x="368" y="2182" width="840" height="424" rx="8" fill="#fff" stroke="#dbe3eb"/><text class="section" x="392" y="2220" fill="#24314a">动作日志</text><text class="small muted" x="486" y="2220">三级结构：运行任务 → 文件任务 → 文件动作</text><rect x="392" y="2240" width="792" height="42" rx="6" fill="#f4f8fb"/><text class="label" x="410" y="2267" fill="#66758c">源文件 / 动作</text><text class="label" x="742" y="2267" fill="#66758c">目标</text><text class="label" x="1008" y="2267" fill="#66758c">状态</text><text class="label" x="1122" y="2267" fill="#66758c">次数</text><line x1="392" y1="2282" x2="1184" y2="2282" class="line"/>
    <rect x="392" y="2296" width="792" height="65" rx="6" fill="#eef6f7"/><text class="small" x="410" y="2320" fill="#24314a" font-weight="700">黑金营救.mkv</text><text class="small" x="410" y="2343" fill="#2d6073">生成 STRM</text><text class="small" x="742" y="2320" fill="#66758c">/Strm/电影/黑金营救.strm</text><rect x="1008" y="2310" width="62" height="24" rx="12" fill="#e7f5ec"/><text class="small" x="1039" y="2326" text-anchor="middle" fill="#2d7052" font-weight="700">已处理</text><text class="small" x="1122" y="2325" fill="#66758c">1</text><line x1="410" y1="2378" x2="1166" y2="2378" stroke="#eef2f5"/>
    <rect x="392" y="2392" width="792" height="65" rx="6" fill="#fff8f4" stroke="#f0d2b3"/><text class="small" x="410" y="2416" fill="#24314a" font-weight="700">黑金营救.srt</text><text class="small" x="410" y="2439" fill="#b9633e">复制字幕</text><text class="small" x="742" y="2416" fill="#66758c">/Strm/电影/黑金营救.srt</text><rect x="1008" y="2406" width="48" height="24" rx="12" fill="#fff0e5"/><text class="small" x="1032" y="2422" text-anchor="middle" fill="#b9633e" font-weight="700">失败</text><text class="small" x="1122" y="2421" fill="#b9633e">3</text><line x1="410" y1="2474" x2="1166" y2="2474" stroke="#eef2f5"/>
    <text class="small" x="410" y="2512" fill="#24314a" font-weight="700">黑金营救.nfo</text><text class="small" x="410" y="2535" fill="#66758c">复制非媒体</text><text class="small" x="742" y="2512" fill="#66758c">/Strm/电影/黑金营救.nfo</text><rect x="1008" y="2502" width="62" height="24" rx="12" fill="#eff3f6"/><text class="small" x="1039" y="2518" text-anchor="middle" fill="#66758c" font-weight="700">已跳过</text><text class="small" x="1122" y="2517" fill="#66758c">1</text><text class="small muted" x="410" y="2576">当前选中失败动作，右侧展示原始错误和修复建议。</text>

    <rect x="1232" y="2182" width="462" height="424" rx="8" fill="#fff" stroke="#f0cfad"/><rect x="1232" y="2182" width="462" height="5" rx="2" fill="#d87348"/><text class="section" x="1256" y="2220" fill="#24314a">动作详情</text><rect x="1588" y="2200" width="80" height="24" rx="12" fill="#fff0e5"/><text class="small" x="1628" y="2216" text-anchor="middle" fill="#b9633e" font-weight="700">失败</text>
    <text class="small muted" x="1256" y="2254">动作</text><text class="body" x="1350" y="2254" fill="#b9633e" font-weight="700">复制字幕</text><text class="small muted" x="1256" y="2284">源文件</text><text class="small" x="1350" y="2284" fill="#24314a">/CloudDrive/电影/黑金营救.srt</text><text class="small muted" x="1256" y="2314">目标文件</text><text class="small" x="1350" y="2314" fill="#24314a">/Strm/电影/黑金营救.srt</text><text class="small muted" x="1256" y="2344">尝试次数</text><text class="body" x="1350" y="2344" fill="#b9633e" font-weight="700">3 次 · 已达到自动重试上限</text><line x1="1256" y1="2370" x2="1670" y2="2370" class="line"/>
    <text class="label" x="1256" y="2400" fill="#935237">诊断结论</text><text class="body" x="1256" y="2428" fill="#b9633e" font-weight="700">目标目录没有写入权限</text><rect x="1256" y="2444" width="414" height="62" rx="6" fill="#fff7ed" stroke="#f0cfad"/><text class="small" x="1274" y="2468" fill="#935237">修复建议：检查目标挂载、容器 UID/GID、NAS ACL，</text><text class="small" x="1274" y="2490" fill="#935237">确认目录可写后再手动重试。</text><rect x="1256" y="2530" width="196" height="40" rx="6" fill="#fff" stroke="#d6a78c"/><text class="label" x="1354" y="2555" text-anchor="middle" fill="#a65332">重试此动作</text><rect x="1462" y="2530" width="208" height="40" rx="6" fill="#2d6073"/><text class="label" x="1566" y="2555" text-anchor="middle" fill="#fff">重试此文件任务</text>
  </g>
  <text class="ui label" x="70" y="2690" fill="#2d6073">03 · 任务详情与动作级重试</text><text class="ui small muted" x="70" y="2713">失败不是一个黑盒状态：用户能看到源文件、目标文件、动作、尝试次数、原始错误、诊断结论和修复建议。</text>
  <rect x="70" y="2735" width="1660" height="1" fill="#cbd6df"/><text class="ui small" x="70" y="2755" fill="#66758c">落定原则：三种入口共用任务中心 · 当前库存与任务结果分层 · 删除/清理始终人工确认 · 旧配置与历史数据自动迁移</text>
</svg>
